<svg width="1440" height="419" viewBox="0 50 1440 419" fill="none" preserveAspectRatio="none" xmlns="http://www.w3.org/2000/svg">
<path d="M-2414 49.4L-2349.58 111.036C-2285.17 172.241 -2156.33 296.159 -2027.5 348.636C-1898.67 401.759 -1769.83 383.441 -1641 304.564C-1512.17 225.041 -1383.33 84.9592 -1254.5 23C-1125.67 -38.9592 -996.833 -20.6408 -868 -3.39999C-739.167 13.8408 -610.333 32.1592 -481.5 93.3641C-352.667 155 -223.833 260.6 -95 243.036C33.8333 225.041 162.667 120.159 291.5 111C420.333 101.841 549.167 148.595 678 157C806.833 165.836 935.667 119.836 1064.5 111C1193.33 102.595 1354 133 1451 198.964C1579.83 225.041 1708.67 190.559 1837.5 155C1966.33 119.441 2095.17 84.9592 2224 84.6359C2352.83 84.9592 2481.67 119.441 2610.5 163.836C2739.33 207.8 2868.17 260.6 2997 243.036C3125.83 225.041 3254.67 137.759 3383.5 75.8C3512.33 13.8408 3641.17 -20.6408 3770 -12.2359C3898.83 -3.40002 4027.67 49.4 4156.5 84.6359C4285.33 119.441 4414.17 137.759 4543 172.564C4671.83 207.8 4800.67 260.6 4929.5 225.364C5058.33 190.559 5187.17 66.6408 5316 40.5641C5444.83 13.8408 5573.67 84.9592 5702.5 137.436C5831.33 190.559 5960.17 225.041 6089 190.236C6217.83 155 6346.67 49.4 6475.5 75.8C6604.33 102.2 6733.17 260.6 6797.58 339.8L6862 419V-109H6797.58C6733.17 -109 6604.33 -109 6475.5 -109C6346.67 -109 6217.83 -109 6089 -109C5960.17 -109 5831.33 -109 5702.5 -109C5573.67 -109 5444.83 -109 5316 -109C5187.17 -109 5058.33 -109 4929.5 -109C4800.67 -109 4671.83 -109 4543 -109C4414.17 -109 4285.33 -109 4156.5 -109C4027.67 -109 3898.83 -109 3770 -109C3641.17 -109 3512.33 -109 3383.5 -109C3254.67 -109 3125.83 -109 2997 -109C2868.17 -109 2739.33 -109 2610.5 -109C2481.67 -109 2352.83 -109 2224 -109C2095.17 -109 1966.33 -109 1837.5 -109C1708.67 -109 1579.83 -109 1451 -109C1322.17 -109 1193.33 -109 1064.5 -109C935.667 -109 806.833 -109 678 -109C549.167 -109 420.333 -109 291.5 -109C162.667 -109 33.8333 -109 -95 -109C-223.833 -109 -352.667 -109 -481.5 -109C-610.333 -109 -739.167 -109 -868 -109C-996.833 -109 -1125.67 -109 -1254.5 -109C-1383.33 -109 -1512.17 -109 -1641 -109C-1769.83 -109 -1898.67 -109 -2027.5 -109C-2156.33 -109 -2285.17 -109 -2349.58 -109H-2414V49.4Z" fill="url(#paint0_linear_437_82)"/>
<defs>
<linearGradient id="paint0_linear_437_82" x1="-2384" y1="-109" x2="-2384" y2="419" gradientUnits="userSpaceOnUse">
<stop stop-color="#23869C"/>
<stop offset="1" stop-color="#23869C"/>
</linearGradient>
</defs>
</svg>
