<svg width="1440" height="385" viewBox="0 0 1440 385" fill="none" preserveAspectRatio="none" xmlns="http://www.w3.org/2000/svg">
<path d="M-2409 70.5554L-2344.58 122.911C-2280.17 174.901 -2151.33 280.163 -2022.5 324.738C-1893.67 369.863 -1764.83 354.303 -1636 287.302C-1507.17 219.752 -1378.33 100.761 -1249.5 48.1302C-1120.67 -4.50047 -991.833 11.0599 -863 25.705C-734.167 40.35 -605.333 55.9104 -476.5 107.9C-347.667 160.256 -231.833 231.92 -103 217C25.8333 201.714 167.667 130.661 296.5 122.881C425.333 115.101 554.167 154.816 683 161.955C811.833 169.461 940.667 130.387 1069.5 122.881C1198.33 115.741 1359 141.569 1456 197.601C1584.83 219.752 1713.67 190.462 1842.5 160.256C1971.33 130.051 2100.17 100.761 2229 100.486C2357.83 100.761 2486.67 130.051 2615.5 167.762C2744.33 205.107 2873.17 249.957 3002 235.038C3130.83 219.752 3259.67 145.611 3388.5 92.9807C3517.33 40.35 3646.17 11.0599 3775 18.1993C3903.83 25.7049 4032.67 70.5554 4161.5 100.486C4290.33 130.051 4419.17 145.611 4548 175.176C4676.83 205.107 4805.67 249.957 4934.5 220.026C5063.33 190.462 5192.17 85.2004 5321 63.0498C5449.83 40.35 5578.67 100.761 5707.5 145.337C5836.33 190.462 5965.17 219.752 6094 190.187C6222.83 160.256 6351.67 70.5554 6480.5 92.9807C6609.33 115.406 6738.17 249.957 6802.58 317.233L6867 384.509V-63.9959H6802.58C6738.17 -63.9959 6609.33 -63.9959 6480.5 -63.9959C6351.67 -63.9959 6222.83 -63.9959 6094 -63.9959C5965.17 -63.9959 5836.33 -63.9959 5707.5 -63.9959C5578.67 -63.9959 5449.83 -63.9959 5321 -63.9959C5192.17 -63.9959 5063.33 -63.9959 4934.5 -63.9959C4805.67 -63.9959 4676.83 -63.9959 4548 -63.9959C4419.17 -63.9959 4290.33 -63.9959 4161.5 -63.9959C4032.67 -63.9959 3903.83 -63.9959 3775 -63.9959C3646.17 -63.9959 3517.33 -63.9959 3388.5 -63.9959C3259.67 -63.9959 3130.83 -63.9959 3002 -63.9959C2873.17 -63.9959 2744.33 -63.9959 2615.5 -63.9959C2486.67 -63.9959 2357.83 -63.9959 2229 -63.9959C2100.17 -63.9959 1971.33 -63.9959 1842.5 -63.9959C1713.67 -63.9959 1584.83 -63.9959 1456 -63.9959C1327.17 -63.9959 1198.33 -63.9959 1069.5 -63.9959C940.667 -63.9959 811.833 -63.9959 683 -63.9959C554.167 -63.9959 425.333 -63.9959 296.5 -63.9959C167.667 -63.9959 38.8333 -63.9959 -90 -63.9959C-218.833 -63.9959 -347.667 -63.9959 -476.5 -63.9959C-605.333 -63.9959 -734.167 -63.9959 -863 -63.9959C-991.833 -63.9959 -1120.67 -63.9959 -1249.5 -63.9959C-1378.33 -63.9959 -1507.17 -63.9959 -1636 -63.9959C-1764.83 -63.9959 -1893.67 -63.9959 -2022.5 -63.9959C-2151.33 -63.9959 -2280.17 -63.9959 -2344.58 -63.9959H-2409V70.5554Z" fill="url(#paint0_linear_443_23)"/>
<defs>
<linearGradient id="paint0_linear_443_23" x1="-2379" y1="-63.9959" x2="-2379" y2="384.509" gradientUnits="userSpaceOnUse">
<stop stop-color="#23869C"/>
<stop offset="1" stop-color="#23869C"/>
</linearGradient>
</defs>
</svg>
