<svg width="1440" height="430" viewBox="0 0 1440 430" fill="none" preserveAspectRatio="none" xmlns="http://www.w3.org/2000/svg">
<path d="M-382 301L-64 250.804C254 200.959 890 100.041 1526 57.3041C2162 14.0408 2798 28.9592 3434 93.1959C4070 157.959 4706 272.041 5342 322.5C5978 372.959 6614 358.041 7250 344C7886 329.959 8522 315.041 9158 265.196C9794 215 10430 129 11066 143.304C11702 157.959 12338 272.041 12974 279.5C13610 286.959 14246 186.041 14882 179.196C15518 172 16154 258 16790 265.196C17426 272.041 18062 200.959 18698 179.196C19334 157.959 19970 186.041 20606 215C21242 243.959 21878 272.041 22514 272.304C23150 272.041 23786 243.959 24422 207.804C25058 172 25694 129 26330 143.304C26966 157.959 27602 229.041 28238 279.5C28874 329.959 29510 358.041 30146 351.196C30782 344 31418 301 32054 272.304C32690 243.959 33326 229.041 33962 200.696C34598 172 35234 129 35870 157.696C36506 186.041 37142 286.959 37778 308.196C38414 329.959 39050 272.041 39686 229.304C40322 186.041 40958 157.959 41594 186.304C42230 215 42866 301 43502 279.5C44138 258 44774 129 45092 64.5L45410 0V430H45092C44774 430 44138 430 43502 430C42866 430 42230 430 41594 430C40958 430 40322 430 39686 430C39050 430 38414 430 37778 430C37142 430 36506 430 35870 430C35234 430 34598 430 33962 430C33326 430 32690 430 32054 430C31418 430 30782 430 30146 430C29510 430 28874 430 28238 430C27602 430 26966 430 26330 430C25694 430 25058 430 24422 430C23786 430 23150 430 22514 430C21878 430 21242 430 20606 430C19970 430 19334 430 18698 430C18062 430 17426 430 16790 430C16154 430 15518 430 14882 430C14246 430 13610 430 12974 430C12338 430 11702 430 11066 430C10430 430 9794 430 9158 430C8522 430 7886 430 7250 430C6614 430 5978 430 5342 430C4706 430 4070 430 3434 430C2798 430 2162 430 1526 430C890 430 254 430 -64 430H-382V301Z" fill="url(#paint0_linear_443_63)"/>
<defs>
<linearGradient id="paint0_linear_443_63" x1="-382" y1="430" x2="-382" y2="0" gradientUnits="userSpaceOnUse">
<stop stop-color="white"/>
<stop offset="1" stop-color="white"/>
</linearGradient>
</defs>
</svg>
