<?xml version="1.0" standalone="no"?><svg xmlns="http://www.w3.org/2000/svg" viewBox="0 0 1440 320" style="user-select: text;"><path fill="#0099ff" fill-opacity="1" d="M0,64L30,96C60,128,120,192,180,186.7C240,181,300,107,360,90.7C420,75,480,117,540,133.3C600,149,660,139,720,154.7C780,171,840,213,900,213.3C960,213,1020,171,1080,170.7C1140,171,1200,213,1260,202.7C1320,192,1380,128,1410,96L1440,64L1440,320L1410,320C1380,320,1320,320,1260,320C1200,320,1140,320,1080,320C1020,320,960,320,900,320C840,320,780,320,720,320C660,320,600,320,540,320C480,320,420,320,360,320C300,320,240,320,180,320C120,320,60,320,30,320L0,320Z" style="user-select: text;"></path></svg>