<svg width="1440" height="454" viewBox="0 0 1440 454" fill="none" preserveAspectRatio="none" xmlns="http://www.w3.org/2000/svg">
<path d="M-2194 317.66L-2129.58 264.685C-2065.17 212.082 -1936.33 105.578 -1807.5 60.4757C-1678.67 14.8179 -1549.83 30.562 -1421 98.3541C-1292.17 166.702 -1163.33 287.098 -1034.5 340.35C-905.667 393.602 -776.833 377.858 -648 363.04C-519.167 348.222 -390.333 332.478 -261.5 279.874C-132.667 226.9 -3.83325 136.14 125 151.236C253.833 166.702 382.667 287.098 511.5 294.97C640.333 302.842 769.167 196.338 898 189.114C1026.83 181.52 1155.67 272.28 1284.5 279.874C1413.33 287.098 1542.17 212.082 1671 189.114C1799.83 166.702 1928.67 196.338 2057.5 226.9C2186.33 257.462 2315.17 287.098 2444 287.375C2572.83 287.098 2701.67 257.462 2830.5 219.306C2959.33 181.52 3088.17 136.14 3217 151.236C3345.83 166.702 3474.67 241.718 3603.5 294.97C3732.33 348.222 3861.17 377.858 3990 370.634C4118.83 363.04 4247.67 317.66 4376.5 287.375C4505.33 257.462 4634.17 241.718 4763 211.804C4891.83 181.52 5020.67 136.14 5149.5 166.424C5278.33 196.338 5407.17 302.842 5536 325.254C5664.83 348.222 5793.67 287.098 5922.5 241.995C6051.33 196.338 6180.17 166.702 6309 196.616C6437.83 226.9 6566.67 317.66 6695.5 294.97C6824.33 272.28 6953.17 136.14 7017.58 68.0699L7082 0V453.799H7017.58C6953.17 453.799 6824.33 453.799 6695.5 453.799C6566.67 453.799 6437.83 453.799 6309 453.799C6180.17 453.799 6051.33 453.799 5922.5 453.799C5793.67 453.799 5664.83 453.799 5536 453.799C5407.17 453.799 5278.33 453.799 5149.5 453.799C5020.67 453.799 4891.83 453.799 4763 453.799C4634.17 453.799 4505.33 453.799 4376.5 453.799C4247.67 453.799 4118.83 453.799 3990 453.799C3861.17 453.799 3732.33 453.799 3603.5 453.799C3474.67 453.799 3345.83 453.799 3217 453.799C3088.17 453.799 2959.33 453.799 2830.5 453.799C2701.67 453.799 2572.83 453.799 2444 453.799C2315.17 453.799 2186.33 453.799 2057.5 453.799C1928.67 453.799 1799.83 453.799 1671 453.799C1542.17 453.799 1413.33 453.799 1284.5 453.799C1155.67 453.799 1026.83 453.799 898 453.799C769.167 453.799 640.333 453.799 511.5 453.799C382.667 453.799 253.833 453.799 125 453.799C-3.83325 453.799 -132.667 453.799 -261.5 453.799C-390.333 453.799 -519.167 453.799 -648 453.799C-776.833 453.799 -905.667 453.799 -1034.5 453.799C-1163.33 453.799 -1292.17 453.799 -1421 453.799C-1549.83 453.799 -1678.67 453.799 -1807.5 453.799C-1936.33 453.799 -2065.17 453.799 -2129.58 453.799H-2194V317.66Z" fill="url(#paint0_linear_443_70)"/>
<defs>
<linearGradient id="paint0_linear_443_70" x1="-2194" y1="453.799" x2="-2194" y2="0" gradientUnits="userSpaceOnUse">
<stop stop-color="#23869C"/>
<stop offset="1" stop-color="#23869C"/>
</linearGradient>
</defs>
</svg>
